<mxfile host="app.diagrams.net" modified="2024-01-18T14:58:51.734Z" agent="Mozilla/5.0 (Macintosh; Intel Mac OS X 10_15_7) AppleWebKit/537.36 (KHTML, like Gecko) Chrome/120.0.0.0 Safari/537.36 Edg/120.0.0.0" version="22.1.21" etag="IjFQp5RH9D7nfyYm7u62" type="github">
  <diagram name="第 1 页" id="NxirShE5pEcqhHFvz3EC">
    <mxGraphModel>
      <root>
        <mxCell id="0" />
        <mxCell id="1" parent="0" />
      </root>
    </mxGraphModel>
  </diagram>
</mxfile>
